<?xml version="1.0" encoding="utf-8"?>
<!-- Generator: Adobe Illustrator 25.2.3, SVG Export Plug-In . SVG Version: 6.00 Build 0)  -->
<svg version="1.1" id="Capa_1" xmlns="http://www.w3.org/2000/svg" xmlns:xlink="http://www.w3.org/1999/xlink" x="0px" y="0px"
	 viewBox="0 0 229.04 210.38" style="enable-background:new 0 0 229.04 210.38;" xml:space="preserve">
<style type="text/css">
	.st0{fill:#EC636B;}
	.st1{fill:#EE7177;}
	.st2{fill:#331D36;}
</style>
<path class="st0" d="M45.59,177.45c-12.42-3.18-18.68-12.26-21.87-23.74c-3.3-11.9,1.84-21.76,9.23-30.97
	c-12.23-6.31-18.81-15.93-17.85-29.54c1.41-20.1,14.77-29.79,32.23-35.44C42.77,38.65,59.18,25.1,78.68,28.84
	c2.17,0.42,3.99,0.95,5.19-2.02c7.74-19.12,28.14-24.18,45.4-22.11C141.6,6.19,151,12.54,157.63,23.3
	c9.65-4.52,19.3-5.99,28.96-0.96c10.31,5.37,12.65,14.72,11.83,25.82c16.43,1.68,27.06,9.67,29.81,26.53
	c2.41,14.76-0.06,27.56-14.24,36.61c8.68,3.55,13.85,8.98,11.99,18.45c-1.69,8.63-8.02,11.68-16.49,12.55
	c1.67,13.12-0.98,24.98-11.04,34.14c-10.46,9.51-22.46,9.63-35.37,4.83c-2.07,13.72-9.92,22.44-22.8,26.35
	c-15.77,4.78-30.93,3.74-44.81-6.04c-1.49-1.05-2.87-2.26-4.47-3.53c-13.95,9.59-27.97,10.48-41.93,0.01
	c4.9-4.2,9.46-8.91,14.77-12.49c7.05-4.76,14.79-5.82,23.32-3.06c6.57,2.13,13.58,3.2,20.49,3.96c25.44,2.83,47.33-13.25,51.9-38.47
	c1.36-7.51,0.85-15.36,1.22-23.4c8.96-1.19,17.44-4.97,23.91-11.83c2.55,1.49,4.62,2.7,6.68,3.9c0.28-0.44,0.56-0.87,0.84-1.31
	c-1.05-0.97-2.22-1.84-3.11-2.93c-0.79-0.97-1.27-2.19-1.89-3.3c1.31,0.17,2.69,0.14,3.92,0.55c1.99,0.68,3.88,1.65,5.81,2.49
	c0.3-0.57,0.6-1.14,0.9-1.71c-1.97-1.16-4.1-2.12-5.86-3.55c-1.02-0.82-1.44-2.38-2.12-3.61c1.2-0.45,2.38-1.21,3.59-1.28
	c2.25-0.13,4.51,0.14,6.77,0.25c0.05-0.56,0.1-1.13,0.15-1.69c-2.91-0.68-5.83-1.36-8.65-2.02c0.15-17.78-0.92-22.21-5.96-30.48
	c-1.18-1.93-1.21-4.77-1.16-7.19c0.12-6.45,1.22-12.96,0.69-19.33c-0.58-6.93-4.83-8.93-10.84-5.81c-3.06,1.59-6.03,3.64-8.49,6.05
	c-1.79,1.75-2.68,4.41-4.19,7.03c-10.17-5.94-21.79-10.74-35.31-10.21c7.93-1.16,8.07-7.5,9.38-13.03c0.04-0.16,0.07-0.33,0.1-0.49
	c0.81-5.11-1.22-7.61-6.2-6.74c-10.43,1.81-19.08,6.82-22.86,17.09c-1.78,4.85-4.51,7.47-8.73,9.8
	c-9.43,5.22-17.17,12.45-22.63,21.59c-4.13-1.73-7.74-3.23-11.34-4.74c-0.25,0.58-0.51,1.17-0.76,1.75
	c2.74,1.32,5.54,2.52,8.18,4.01c0.91,0.52,1.42,1.76,2.11,2.67c-1.22,0.43-2.48,1.31-3.64,1.2c-2.75-0.27-5.46-1.01-8.19-1.56
	c-0.17,0.75-0.33,1.5-0.5,2.25c3.4,0.77,6.8,1.54,10.65,2.42c-0.91,1.44-2.18,2.51-2.11,3.49c0.54,7.74,0.72,15.69,6.68,21.73
	c2.44,2.47,4.91,5.37,7.97,6.59c1.56,0.62,4.42-2.07,6.7-3.23c10.4-5.27,21.42-0.23,23.07,10.54c0.77,5.01-1.93,10.86-5.92,12.83
	c-4.16,2.05-8.62,1-12.53-2.95c0.31-0.29,0.62-0.57,0.93-0.86c6.55,3.44,10.81,2.79,13.28-2.04c3.38-6.61-0.47-14.83-7.73-16.49
	c-6.5-1.48-13.49,0.75-16.19,6.84c-2.59,5.82-6.34,10.03-11.19,13.76c-3.01,2.32-4.23,5.11-1.71,8.99c1.28,1.97,1.15,4.86,1.66,7.33
	c-2.59-3.1-4.18-6.55-6.42-9.51c-3.53-4.64-8.91-6.13-13.25-4.24c-4.17,1.82-6.64,7.04-6.15,12.62c0.67,7.5,4.57,13.44,9.11,19.04
	c2.96,3.65,6.18,7.09,9.41,10.78C59.96,172.62,52.78,175.04,45.59,177.45z"/>
<path class="st0" d="M8.83,137.17c-5.05-0.13-8.79-3.66-8.83-8.33c-0.04-5.72,5.03-10.04,11.55-9.84c4.71,0.15,8.87,4.47,8.77,9.13
	C20.22,132.77,14.44,137.31,8.83,137.17z"/>
<path class="st0" d="M176.58,210.15c-5.05,0-6.81-1.83-6.85-5.21c-0.07-5.22,5.49-10.7,10.73-10.45c3.78,0.18,6.31,1.94,6.19,6.18
	C186.5,205.6,180.84,210.2,176.58,210.15z"/>
<path class="st1" d="M116.5,167.76c-0.7-2.81-1.19-5.7-2.14-8.42c-1.7-4.88-4.49-8.84-9.83-10.44c-6.02-1.81-11.62,1.14-11.93,7.42
	c-0.25,5.09,1.22,10.26,1.95,15.5c-4.14-4.38-6.3-9.7-5.34-16.04c0.84-5.49,3.57-9.62,9.39-10.97c5.67-1.31,10.31,0.72,13.62,5.12
	C116.08,155.07,118.17,160.99,116.5,167.76z"/>
<path class="st1" d="M132.03,135.58c-5.86,3.74-12.44,2.02-15.51-3.6c-3.22-5.89-0.57-13.43,5.53-16.45
	c9.79-4.83,25.92,6.55,24.3,16.27c-1.9-2.78-3.24-6.05-5.66-7.97c-3.38-2.69-7.35-5.15-11.46-6.3c-5.03-1.4-9.87,2.52-10.62,7.35
	c-0.8,5.12,2.78,9.68,8.3,10.45C128.4,135.54,129.9,135.49,132.03,135.58z"/>
<path class="st2" d="M137.06,95.3c5.91-7.72,19.39-5.76,22.03,3.23C152.2,94.14,144.93,92.69,137.06,95.3z"/>
<path class="st2" d="M107.78,86.54c-4.89-6.99-11.28-10.09-20.21-7.62c2.57-3.9,6.23-4.8,11.24-3.55
	C104.07,76.69,107.68,80.73,107.78,86.54z"/>
<path class="st1" d="M124.02,91c-5.68,4.87-7.63,4.33-9.34-2.15C117.78,89.56,120.39,90.16,124.02,91z"/>
<path class="st0" d="M95.88,123.82c-0.24-0.47-0.49-0.94-0.73-1.41c0.55,0.18,1.11,0.37,1.66,0.55
	C96.5,123.25,96.19,123.53,95.88,123.82z"/>
</svg>
